<svg version="1.1" id="Layer_1" xmlns="http://www.w3.org/2000/svg" xmlns:xlink="http://www.w3.org/1999/xlink" x="0px" y="0px" viewBox="0 0 258.9 49.1" style="enable-background:new 0 0 258.9 49.1;" xml:space="preserve">
 <style type="text/css">
  .st0{fill:#337ACE;}
 </style>
 <g>
  <g>
   <path class="st0" d="M168.3,33.9c-1,4.3-3.8,6.8-8,6.8c-2.8,0.1-5.4-1.3-6.9-3.7c-1.6-2.5-1.5-8.3-1.5-10c0-1.8,0-9.8,0.3-11
			c-3.8-0.1-7.3-0.3-9.6-0.3c-0.3,1.5-0.3,12.6-0.3,12.6c0,5.4,0.4,10.3,3.5,14.2c3.5,4.3,8.8,6.8,14.4,6.7
			c10.1,0,16.6-6.8,17.8-15.3H168.3z">
   </path>
   <path class="st0" d="M153.3,12.3c0.3-0.6,2.1-3.9,7-3.9c3.3-0.1,6.3,1.9,7.4,5c3.4,0.4,6.9,0.9,10.3,1.5
			C176.7,6.7,170.5,0,160.3,0c-3.4-0.1-6.8,0.8-9.7,2.5c-4.1,2.6-6.3,5.7-7.3,9.4C146.6,12,150,12.1,153.3,12.3L153.3,12.3z M30.2,5
			c-3.1-3.3-7.7-4.6-13.4-4.6H0v36.3c3-1.2,6.2-2.4,9.4-3.5V8.8h7.2c3.1,0,5.5,1.1,7,3c1.8,2.3,2,4.2,2,16.3
			c3.2-0.9,6.3-1.7,9.5-2.5C35.1,13.8,35.1,10.1,30.2,5L30.2,5z">
   </path>
  </g>
  <path class="st0" d="M88.5,27.9c4.1-1.4,7.3-4.8,8.4-9c-11.5,1.7-22.9,4-34.1,6.8v23h9.4V29.5H79l9.4,19.3h10.9L88.5,27.9z
		 M137.1,40.2h-22.3V28.6h19.1v-8.5h-19.1v-3.3c-3.1,0.3-6.3,0.6-9.4,1v30.9h31.8L137.1,40.2L137.1,40.2L137.1,40.2z M17.4,48.7
		c5,0,9.6-1.4,12.8-4.6c2.8-2.8,4-6.1,4.5-9.6C24.1,38.4,13.8,43.1,4,48.7H17.4z M43.8,48.7h9.4V28.3c-3.2,0.9-6.3,1.9-9.4,2.9
		C43.8,31.2,43.8,48.7,43.8,48.7z">
  </path>
  <path class="st0" d="M43.8,23.4c3.1-0.7,6.2-1.4,9.4-2v-21h-9.4C43.8,0.4,43.8,23.4,43.8,23.4z M137.1,0.4h-31.7v13.3
		c3.2-0.3,6.3-0.6,9.4-0.8V8.8h22.4L137.1,0.4L137.1,0.4z">
  </path>
  <path class="st0" d="M242.9,48.7h-7.1L219.9,0.4h9.8l9.7,31.5L249,0.4h9.8L242.9,48.7z M202.6,8.8v39.9h-9.4V8.8h-12.6V0.4h34.7
		v8.4C215.3,8.8,202.6,8.8,202.6,8.8z">
  </path>
  <path class="st0" d="M72.2,8.8H81c4,0,6.9,2.3,6.9,6.9l9.4-1.1C97,6.8,91.2,0.4,81.7,0.4h-19v19.2c3.1-0.6,6.3-1.1,9.4-1.6
		L72.2,8.8L72.2,8.8z">
  </path>
 </g>
</svg>