<svg version="1.1" id="Layer_1" xmlns="http://www.w3.org/2000/svg" xmlns:xlink="http://www.w3.org/1999/xlink" x="0px" y="0px" viewBox="-170.1 -76.4 507.4 146.7" style="enable-background:new -170.1 -76.4 507.4 146.7;" xml:space="preserve">
 <style type="text/css">
  .st0{fill:#01147B;}
	.st1{fill:url(#SVGID_1_);}
 </style>
 <g>
  <g>
   <path class="st0" d="M32.8,11.7c0.1,1.6-0.2,3.1-0.9,4.4c-1.2,2.2-2.4,4.4-3.7,6.7c-1.1,2-1.9,4.1-2.1,6.4c-0.1,0.6-0.2,1.3,0.2,2
			c1.7-2.5,3.3-4.8,5.1-7.1c2.1-2.6,4.3-5.2,6.9-7.3c1.4-1.2,2.9-2.2,4.8-2.7c2.5-0.7,4.5,0.1,5.9,2.3c1.2,1.9,1.5,4,1.6,6.2
			c0.3,8-5.3,16.7-12.7,19.8c-2.2,0.9-4.5,1.3-6.8,0.9c-0.7-0.1-1,0.1-1.2,0.7c-3.2,7.8-5.4,15.8-6.5,24.2c-0.3,2.1-1.3,2.6-3.1,1.4
			c-2.8-2-4.2-4.7-4.4-8.1c-0.2-4.4,1-8.7,2.3-12.8c1.1-3.3,2.4-6.6,3.9-9.8c0.2-0.4,0.4-0.8,0.1-1.4c-2.1-3.9-2-8-0.7-12.1
			c1.7-5.5,4.9-10.1,9.2-14c0.2-0.2,0.5-0.4,0.7-0.5C32.3,10.7,32.8,10.8,32.8,11.7z M-148.4-22.2c13.5,0.4,26,4.6,37.8,10.7
			c8,4.1,15.1,9.3,21.2,16c3.2,3.5,5.8,7.3,7.8,11.6c3.2,7.2,2.3,14-2.1,20.4c-3.6,5.2-8.7,8.2-14.6,10.1c-9.2,3.1-18.6,3.3-28,1
			c-0.9-0.2-1,0-1.1,0.8c-0.2,2.6-0.9,3.4-3,3.6c-2.5,0.2-4-0.7-4.6-3c-0.3-1.2-0.5-2.5-0.6-3.8c-0.1-0.8-0.4-1.2-1.1-1.6
			c-6.2-2.9-11.6-6.7-16.3-11.7c-0.9-1-1.8-2.1-2.5-3.3c-1.8-3.1-1.3-6,1.6-8.2c1.9-1.5,4-2.6,6.2-3.4c3.6-1.3,7.3-2.5,11.1-3
			c0.9-0.1,1.3-0.5,1.3-1.4c0-4.3,0.5-8.5,1.3-12.7c0.1-0.5,0.3-1.1,0.5-1.6c0.4-1.1,1.1-1.3,2.1-0.6c1,0.8,1.6,1.8,2,2.9
			c1.4,3.5,1.6,7.1,1.7,10.8c0.1,1.5,0.1,1.5,1.5,1.5c6.3-0.2,12.4,0.8,18.3,2.9c2.3,0.8,4.4,2.1,5.9,4.1c2,2.6,2,5.5-0.1,7.9
			c-2.5,2.9-5.2,3-8.1,2c-0.3-0.1-0.6-0.3-0.7-0.7c0-0.4,0.3-0.6,0.6-0.8c0.8-0.5,1.7-0.8,2.5-1.5c1.2-1.2,1.1-2.2-0.5-2.9
			c-2.1-0.9-4.3-1.4-6.5-1.9c-3.9-0.8-7.8-1.4-11.8-1.5c-0.8,0-1.1,0.1-1.1,1c0.2,6.2,0.3,12.5,0.4,18.7c0,0.5-0.1,0.9,0.7,1
			c9.3,1.5,18.5,1.4,27.3-2.3c3.5-1.5,6.7-3.6,8.7-7c2.8-4.7,2.7-9.5,0.5-14.4c-3-6.7-7.9-11.9-13.7-16.3
			c-11.5-8.6-24.4-13.8-38.5-16.3c-6.5-1.1-13.1-1.5-19.7-0.7c-1.7,0.2-3.3,0.5-5.1,1.4c0.9,0.4,1.5,0.4,2.1,0.5
			c0.6,0.1,1.2,0.2,1.7,0.5c0.4,0.3,0.7,0.7,0.7,1.2c-0.1,0.5-0.5,0.8-0.9,0.9c-1.9,0.4-3.9,0.3-5.7-0.5c-1.1-0.5-1.2-1.5-0.9-2.5
			c0.9-3,2.9-5,5.9-5.9C-158.9-21.6-153.7-22.3-148.4-22.2z M15.5,11.9c2-0.1,3.5,0.8,4.6,2.3c0.5,0.7,0.9,1.4,1.3,2.1
			c0.7,1.4,0.4,2.2-1.2,2.5c-2.7,0.5-5.4,0.7-8.1,0.9c-1.4,0.1-2.8,0.2-4.3,0.3c-0.5,0-0.8,0.2-1,0.7c-0.2,0.8-0.5,1.6-0.8,2.3
			c-0.3,0.7-0.1,0.9,0.7,0.8c2.4-0.2,4.8-0.2,7.2,0c1.3,0.1,1.7,0.5,1.7,1.7c0,3.3,0,3.5-3.1,3.7c-2.6,0.1-5.2,0.3-7.8,0.4
			c-0.8,0-1.2,0.3-1.3,1.1c-0.3,1.3-0.7,2.7-1.2,4c-0.3,0.9,0,1.1,0.8,0.9c3.5-0.7,7.1-1.4,10.7-1.8c1.2-0.1,2,0.2,2.8,1
			c1.2,1.4,1.2,2.8-0.1,4c-2.7,2.5-5.8,4.1-9.2,5.4c-1.2,0.5-2.4,0.7-3.7,1c-4.8,1.2-9.4-3.6-8.8-8.5c0.3-1.9,0.6-3.8,1.3-5.7
			c0.3-0.8,0.4-1.5,0.1-2.3c-0.2-0.5-0.3-1.1-0.4-1.6c-0.2-1.8,0.2-2.3,2-2.5c0.8-0.1,1.1-0.4,1.4-1c0.5-1.2,1.2-2.4,1.7-3.6
			c0-0.1,0-0.1,0-0.3c-2-0.2-3.7-0.9-4.8-2.8c-0.9-1.6-0.7-2.2,1-2.6c3.7-0.9,7.5-1.4,11.3-1.8C10.7,12,13.1,11.9,15.5,11.9z
			 M79.6,4.4c0.9,5,1.6,10,1.9,15.1c0,0.9,0.3,1.2,1.2,1.2c4.9,0,9.8,0,14.7,0c0.8,0,1.5,0.2,2.1,0.8v4.5c-0.5,0.7-1.2,0.9-2,0.9
			c-4.9,0-9.7,0-14.6,0c-0.9,0-1,0.2-1,1.1c0.1,4.8-0.1,9.5-0.6,14.2c-0.2,1.8-0.5,2.1-2.2,2.1c-0.8,0-1.6,0-2.4,0
			c-1.3,0-1.8-0.5-1.6-1.8c0.6-4.8,0.7-9.6,0.7-14.4c0-0.9-0.3-1.1-1.1-1.1c-4.8,0-9.5,0-14.3,0c-1.7,0-2.1-0.4-2.1-2.1
			c0-0.7,0-1.5,0-2.2c0-1.4,0.4-1.8,1.8-1.8c4.7,0,9.4,0,14.1,0c1,0,1.3-0.2,1.2-1.3c-0.4-4.8-1-9.7-1.9-14.4
			c-0.3-1.6,0-2.1,1.6-2.1c0.9,0,1.7,0,2.6,0C78.8,2.8,79.4,3.2,79.6,4.4L79.6,4.4z M-72.6,13c1.3,0.6,1.8,1.8,2.1,3
			c0.7,3.1,0.9,6.4,1.1,9.6c0.2,2.3,0.2,4.7,0.4,7.1c0.1,2.7,0.3,5.3,0.1,8c-0.1,2-0.9,3.1-2.3,3.3c-2.4,0.3-4.1-0.5-4.7-2.4
			c-0.4-1.4-0.5-2.8-0.6-4.2c-0.3-6.9-0.2-13.7,1-20.5c0.2-1.1,0.5-2.2,1-3.2C-74.1,12.8-73.4,12.6-72.6,13L-72.6,13z M-47.3,11.6
			c3.5,0,6.9,0.3,10.1,1.6c0.8,0.3,1.9,0.5,1.9,1.6c0,1.2-0.7,2-1.8,2.6c-1.5,0.8-3.1,0.8-4.7,0.9c-4.2,0.3-8.5,0.2-12.7,0.7
			c-2,0.2-4,0.5-5.9,1.1c-0.4,0.1-0.9,0.2-0.9,0.7c0,0.6,0.6,0.6,1,0.7c2.8,0.6,5.7,0.8,8.6,1.1c3.1,0.4,6.3,0.8,9.4,1.5
			c7.4,1.8,7.7,11.4,3.9,15.1c-2.1,2.1-4.6,3.2-7.5,3.7c-5.9,1.1-11.4-0.1-16.2-3.7c-1.3-1-2.5-2.2-3.1-3.8
			c-0.9-2.4,0.1-4.8,2.4-6.1c1.7-1,3.7-1.3,5.6-1.3c4,0.1,7.8,0.7,11.4,2.4c0.6,0.3,1.3,0.5,1.2,1.3c0,0.7-0.6,1.1-1.2,1.4
			c-2.7,1.3-5.4,1.9-8.3,0.6c-1.6-0.7-3.3-1.5-5-1.9c-0.9-0.2-1.7-0.1-2.5,0.2c-0.7,0.3-1.2,0.8-1.3,1.6c-0.1,0.7,0.5,1.2,1,1.5
			c1.2,0.7,2.6,1.1,3.9,1.2c4.8,0.3,9.5-0.2,13.9-2.4c0.4-0.2,0.7-0.4,1.1-0.6c0.8-0.5,1.8-1,1.6-2.2c-0.1-1.1-1.1-1.6-2-2
			c-2.7-1.2-5.6-1.5-8.5-1.9c-3.7-0.4-7.4-0.5-11.1-1.1c-3.8-0.6-5.1-2.9-3.9-6.6c0.6-2,2-3.4,3.7-4.5c2.9-1.8,6.2-2.6,9.5-3.1
			C-51.5,11.7-49.4,11.5-47.3,11.6z M-15.8,7.7c1.1,0.6,2,1.5,2.8,2.4c3,3.3,4.6,7.2,5.4,11.5c1,5.2,1,10.4-0.7,15.5
			c-0.3,0.8-0.7,1.6-1.3,2.2c-2.1,2.5-5,2.6-7.2,0.3c-2.2-2.3-3.8-5.1-5.3-7.9c-1.1-2-2.2-4-3.2-6c-0.2-0.3-0.3-0.7-0.7-0.7
			c-0.4,0.1-0.3,0.5-0.4,0.9c-0.3,2.4-0.4,4.9-0.4,7.4c-0.1,2.4-0.1,4.9-0.7,7.2c-0.4,1.6-1.2,2.4-2.6,2.5c-1.3,0.1-2.6-0.7-3.1-2.1
			c-0.8-2.1-0.7-4.3-0.7-6.4c0.1-5.3,0.8-10.5,2.3-15.6c0.3-1.1,0.8-2.3,1.4-3.3c1.3-1.9,2.7-2.1,4.4-0.4c2.7,2.8,4.8,6,6.8,9.3
			c1.3,2.1,2.7,4.2,4,6.3c0.2,0.4,0.5,0.9,1,0.8c0.6-0.2,0.4-0.8,0.4-1.1c-0.1-3.4-0.9-6.7-1.7-9.9c-0.7-3.2-1.6-6.3-2.5-9.4
			c-0.2-0.8-0.4-1.6-0.3-2.4C-17.7,7.3-17,7-15.8,7.7L-15.8,7.7z M-136.3,20.9c-2.5,0.2-4.9,0.4-7.3,0.8c-3,0.5-6,1-8.8,2.3
			c-1.9,0.9-2.1,1.9-0.7,3.6c0.3,0.3,0.6,0.7,0.9,1c2.8,2.9,6.2,5.1,9.7,7.1c2.2,1.3,4.5,2.3,6.9,3c0-0.1,0.1-0.1,0.1-0.2
			c0-5.7,0-11.4,0-17.1C-135.6,20.8-135.9,20.9-136.3,20.9z M43.6,21.4l-5.1,6.1c-1.8,2.5-3.5,5.1-5,8c1.7-0.2,3.2-0.6,4.6-1.3
			c4.9-2.3,7.9-6,8.4-11.5c0.1-0.9,0.3-2.1-0.8-2.5C44.9,19.9,44.2,20.8,43.6,21.4L43.6,21.4z M-65.6-16.3c2.3,0,4.3,0.8,5.9,2.6
			c0.3,0.4,0.7,0.5,1.1,0.6c4.1,0.9,6.1,4.4,4.7,8.4c-0.4,1.1-0.9,2.2-1.7,3.1c-3.8,4.3-8.2,7.4-13.9,8.7c-2.2,0.5-4.5,0.4-6.6-0.3
			c-0.6-0.2-0.9-0.1-1.1,0.5l0,0.1c-0.5,0.8-0.9,1.9-2.1,1.7C-80.5,9-81,8-81.4,7.1c-0.2-0.4-0.4-0.9-0.3-1.3
			c0.2-1.6-0.5-2.9-1.4-4.1c-0.7-1.1-1-2.4-1-3.7c0-1.8,0.5-3.5,1.5-5C-78.4-12.9-72.9-16.2-65.6-16.3z M-61.2-9.1
			c-1.1,0.2-2.2,0.6-3.2,1.3C-66.8-6.3-69-4.5-71-2.4c-1,1.1-1.8,2.2-2.7,3.4C-74,1.5-74,1.7-73.4,1.7h2c4.1,0,7.8-1.3,11-3.8
			c1.1-0.9,2.1-1.9,2.6-3.3C-57.1-7.8-58.8-9.6-61.2-9.1L-61.2-9.1z M-71.3-9.7c-3.1-0.1-7.8,3.5-8.5,6.4c-0.2,1-0.1,1.5,0.5,2.4
			C-77.1-4.2-74.4-7.1-71.3-9.7z">
   </path>
   <radialGradient id="SVGID_1_" cx="31.779" cy="112.3735" r="9.9368" gradientTransform="matrix(19.249 -3.464907e-03 -3.175179e-03 -19.2495 -537.5004 2159.6282)" gradientUnits="userSpaceOnUse">
    <stop offset="0" style="stop-color:#01147B">
    </stop>
    <stop offset="3.000000e-02" style="stop-color:#011098">
    </stop>
    <stop offset="6.000000e-02" style="stop-color:#010ABD">
    </stop>
    <stop offset="9.999999e-02" style="stop-color:#0006DA">
    </stop>
    <stop offset="0.14" style="stop-color:#0003EE">
    </stop>
    <stop offset="0.18" style="stop-color:#0001FB">
    </stop>
    <stop offset="0.22" style="stop-color:#0000FF">
    </stop>
    <stop offset="1" style="stop-color:#00FFFF;stop-opacity:0">
    </stop>
   </radialGradient>
   <path class="st1" d="M-28.8-76.4c-3.1,0-6.2,0.2-9.1,0.6c-6.8,0.9-13.5,1.8-20.1,3.6c-6.7,1.8-13.3,4.2-19.5,7.3
			c-13,6.3-24.7,14.9-34.4,25.5c-4,4.3-7.5,8.9-10.8,13.7c-0.7,1.1-0.4,1.9,0.8,2.3c0.7,0.3,1.5,0.5,2.2,0.8
			c1.4,0.4,1.8,0.3,2.6-0.9c1.9-2.7,3.7-5.5,6-8c2.4-2.6,4.8-5.3,7.2-7.9c2.8-2.6,5.7-5.1,8.6-7.5c11.2-9,24.4-15.7,38.2-19.6
			c14.6-4.1,30-5,44.9-2.8c9.5,1.4,18.8,4.1,27.7,8c10,4.4,19.4,10.4,27.7,17.6c10.4,9,18.7,20,24.9,32.3c0.7,1.4,1.4,2.9,2.1,4.3
			c1.6,3.6,1,3.6,4.3,3.5c0.4,0,0.8,0,1.3,0c1.2,0,2-0.5,1.6-1.8C75-11.8,71.4-18,67.7-23.8c-3.8-5.9-8.1-11.4-12.9-16.5l-0.3-0.3
			c-7.6-8-16.3-15.1-25.9-20.5c-3.8-2.3-7.8-4.2-11.9-5.9c-3.2-1.6-6.6-2.7-10-3.8c-7.1-2.3-14.5-3.9-22-4.7
			c-4.3-0.5-8.8-0.8-13.2-0.8C-28.7-76.4-28.8-76.4-28.8-76.4z">
   </path>
  </g>
  <path class="st0" d="M291.2,4.9c5.6,0,10.2,2.1,13.2,6.4h0.1V6h7.1v38h-7.1v-5.9h-0.1c-2.7,4.5-7.5,6.9-12.9,6.9
		c-11.1,0-20.2-8.4-20.2-19.3C271.3,13.4,280,4.9,291.2,4.9z M177.7,4.9c10.5,0,20.4,8.2,20.2,20.3c-0.1,10.4-9,20.1-21.5,19.7
		c-10.6-0.3-19.6-9.5-19.5-20.1C157.1,13.4,166.2,4.9,177.7,4.9z M235.2,4.9c6.3,0,11.5,4.4,11.7,11.1h-7.1
		c-0.3-2.7-1.9-4.6-4.9-4.6c-2.7,0-4.5,1.9-4.5,4.1c0,3.2,3.3,4.2,7.1,5.4c5.4,1.6,10.3,4.9,10.3,11.9c0,7.3-5.4,12.1-12.8,12.1
		c-6.9,0-13.4-4.7-13.4-13.4h7.1c0.3,4.6,2.7,6.9,6.4,6.9c3.3,0,5.5-2.1,5.5-5.2c0-2.6-2-4.3-6.4-5.8c-9.3-3-10.9-7-10.9-11.3
		C223.3,9.4,229,4.9,235.2,4.9L235.2,4.9z M116.6-6.8c3.9,0,7.1,3.2,7.1,7.1V10h0.1c2.3-3.4,5.9-5.1,10.6-5.1
		c9.1,0,15.8,5.8,15.8,16.2V44h-7.1V23.3c0-8.2-3.2-11.9-9.5-11.9c-6.2,0-10,4.5-10,11.9V44h-7.1V-6.8z M213.2-6.8V6h6.2v6.5h-6.2
		V44c-3.9,0-7.1-3.2-7.1-7.1V12.5h-2.9V6h2.9V-6.8H213.2z M262.8-6.8V6h6.2v6.5h-6.2V44c-3.9,0-7.1-3.2-7.1-7.1V12.5h-2.9V6h2.9
		V-6.8H262.8z M337.3,4.9v7.3c-6.2,0.2-9.3,4-9.3,10.4v14.2c0,3.9-3.2,7.1-7.1,7.1V6h6.7v3.4h0.1C329.3,6.9,332.3,5.2,337.3,4.9
		L337.3,4.9z M291.4,11.5c-7.5,0-13.6,6.8-12.9,14.8c0.6,6.6,6,12,12.6,12.1c7.5,0.2,13.5-6.1,13.5-13.4
		C304.6,17.6,299.3,11.5,291.4,11.5z M177.4,11.5c-8.2,0-15.1,7.9-12.9,16.8c1.5,6,7,10.3,13.1,10.2c7.3-0.2,13.2-6,13.2-13.6
		C190.8,17.4,184.9,11.5,177.4,11.5L177.4,11.5z">
  </path>
 </g>
</svg>