<svg xmlns="http://www.w3.org/2000/svg" xml:space="preserve" width="1024" height="1024"><path d="M536.46 731.697c-.24-.413-.76-25.682-1.157-56.154l-.723-55.404 6.849.647c3.766.356 8.062.65 9.546.654 2.572.007 2.648.148 1.634 3.058-1.427 4.094-.809 4.382 3.144 1.466 13.987-10.319 32.628-4.557 41.86 12.937 2.369 4.49 2.662 6.147 2.663 15.046 0 9.433-.205 10.43-3.626 17.594-3.874 8.112-6.095 10.24-15.035 14.4-7.864 3.662-13.867 3.392-22.132-.994-3.628-1.925-6.733-3.5-6.901-3.501-.168 0-.177 10.847-.02 24.105.203 17.166-.048 24.508-.873 25.501-1.238 1.492-14.414 2.05-15.23.645zm39.419-63.508c7.157-4.757 10.001-16.27 5.83-23.606-2.947-5.182-6.483-7.434-12.45-7.93-6.042-.5-9.36.935-14.482 6.265-3.158 3.285-3.48 4.137-3.284 8.72.38 8.873 3.241 14.035 9.784 17.645 3.51 1.937 10.87 1.385 14.602-1.094zm-344.79 19.318c-13.826-4.977-22.251-12.11-27.971-23.684-9.421-19.063-5.457-41.721 9.765-55.814 7.218-6.683 11.58-9.047 20.622-11.175 8.421-1.982 18.61-1.376 26.46 1.573 6.68 2.51 20.462 14.699 17.812 15.752-1.848.735-8.097 7.099-9.623 9.8-1.087 1.926-1.244 1.89-5.02-1.125-9.959-7.952-20.305-10.274-28.88-6.48-6.962 3.08-11.035 6.482-14.177 11.844-2.305 3.932-2.739 5.81-2.707 11.716.079 14.735 5.665 24.599 16.18 28.569 10.388 3.922 24.14.4 29.555-7.569l2.404-3.537 4.884 3.89c2.686 2.14 5.753 4.869 6.816 6.065l1.933 2.176-4.933 5.018c-12.756 12.978-29.296 17.958-43.12 12.981zm59.992 1.171c-1.44-.941-1.909-14.669-1.554-45.481l.25-21.75h8.48c7.976 0 8.512.134 8.997 2.25.283 1.237.404 16.425.269 33.75l-.246 31.5-7.5.256c-4.125.141-8.038-.095-8.696-.525zm31.946.086-2.25-.456V621.447h18v7.237l3.092-3.023c8.343-8.157 25.66-6.33 33.594 3.546 6.807 8.473 6.783 8.354 7.128 35.59l.314 24.851-4.314-.55c-2.373-.302-6.002-.572-8.064-.6l-3.75-.051-.011-18.75c-.014-22.414-.43-25.44-4.028-29.292-2.513-2.69-3.353-2.958-9.246-2.958-6.295 0-6.587.116-10.1 4.003-1.988 2.201-3.662 4.789-3.72 5.75-.056.96-.262 9.397-.457 18.747s-.605 18.392-.912 20.093c-.552 3.06-.623 3.093-6.792 3.136-3.43.024-7.247-.162-8.484-.412zm160.266-.863c-6.325-1.734-14.724-6.087-19.207-9.954l-3.479-3 5.086-7.783 5.085-7.782 3.66 3.66c6.1 6.1 18.546 10.413 24.04 8.332 10.3-3.902 9.391-14.52-1.54-17.994-2.013-.64-8.24-2.933-13.837-5.095-13.802-5.333-19.05-11.154-20.844-23.121-1.482-9.88 3.937-18.335 15.354-23.957 6.137-3.023 7.348-3.26 16.642-3.26 12.256 0 17.89 1.892 24.757 8.315 4.527 4.235 4.685 4.554 2.883 5.816-1.049.734-3.097 3.366-4.552 5.849-2.515 4.291-2.754 4.442-4.855 3.066-3.48-2.28-15.482-6.546-18.417-6.546-3.886 0-10.759 3.635-12.293 6.501-1.017 1.9-1.066 3.058-.207 4.942 1.397 3.067 3.702 4.26 19.406 10.044 18.808 6.926 24.731 13.077 24.78 25.734.043 11.404-5.774 19.518-18.113 25.262-6.208 2.89-15.937 3.278-24.35.971zm127.055-.026c-1.383-1.383-1.571-7.125-1.571-48v-46.428h16.82l.71 8.53c.391 4.693.52 12.541.285 17.441-.296 6.202-.1 8.7.648 8.22.591-.38 3.03-2.023 5.422-3.651 3.392-2.31 5.73-3.048 10.632-3.36 11.564-.737 18.6 3.196 23.391 13.075l3.03 6.245-.348 24.5-.348 24.5-7.136-.065c-4.253-.038-7.635-.564-8.37-1.301-.904-.904-1.236-6.978-1.236-22.605 0-21.171-.022-21.391-2.397-23.92-2.862-3.046-8.302-5.027-11.56-4.21-1.293.325-4.702 2.45-7.575 4.72l-5.225 4.13.644 12.126c1.138 21.421.997 29.767-.517 30.726-2.447 1.55-13.565 1.061-15.299-.673zm93.929.634c-9.576-2.342-22.262-14.152-24.96-23.237-3.883-13.077-.862-25.664 8.38-34.905 13.278-13.278 33.39-13.464 44.876-.414 6.64 7.544 10.171 15.672 10.33 23.78.073 3.734-.038 6.954-.247 7.156-.209.203-10.842.523-23.63.713-12.786.19-23.249.648-23.25 1.018 0 .37 1.22 2.122 2.71 3.892 3.73 4.434 9.598 6.886 16.538 6.913 5.152.02 6.139-.332 9.53-3.396l3.782-3.417 5.219 4.334c2.87 2.383 5.781 4.544 6.47 4.802 1.444.542.053 1.795-8.179 7.369-7.904 5.351-18.922 7.506-27.57 5.392zm21.03-42.812c-1.873-7.505-12.32-11.454-20.86-7.886-3.137 1.311-8.67 6.844-8.67 8.67 0 .835 6.12 1.307 22.858 1.765l7.358.2zm29.041 42.178c-1.365-1.365-1.571-5.908-1.571-34.607 0-29.713.159-32.974 1.581-32.428.87.334 5.055.607 9.3.607h7.717l-.409 3.5c-.224 1.925-.138 3.5.193 3.5.33 0 2.722-1.62 5.315-3.599 4.57-3.489 4.937-3.588 11.977-3.232 9.12.46 10.521 1.621 7.005 5.8-1.43 1.7-2.882 4.593-3.227 6.431-.588 3.137-.925 3.377-5.495 3.918-6.247.74-9.383 2.85-12.748 8.574-2.635 4.481-2.718 5.103-3.017 22.608-.261 15.235-.56 18.192-1.942 19.25-2.404 1.84-12.743 1.614-14.679-.322zm67.896.175c-10.81-3.387-21.735-13.394-25.496-23.356-3.041-8.056-2.378-16.949 1.916-25.67 3.753-7.624 8.216-11.792 17.065-15.942 16.518-7.744 33.724-1.194 42.225 16.074 2.61 5.3 3.094 7.426 3.057 13.4-.025 3.906-.495 7.552-1.046 8.102-.618.619-9.635.942-23.595.846-12.426-.086-22.593.228-22.593.698 0 1.611 6.503 7.145 10.217 8.694 7.22 3.011 15.975 1.436 20.89-3.756l2.393-2.53 6.386 5.919c3.513 3.255 5.838 5.918 5.168 5.918-.67 0-3.105 1.546-5.411 3.436-10.151 8.318-21.338 11.249-31.176 8.167zm20.996-41.854c-1.22-4.088-3.443-6.698-7.438-8.736-5.007-2.555-10.613-2.562-14.785-.019-3.087 1.883-7.237 7.338-7.23 9.506.002.611 5.86 1.097 15.064 1.25l15.06.249zm-23.03-5.64c.713-1.154 4.567-3.483 4.567-2.76 0 .232-1.18 1.194-2.624 2.14-1.442.945-2.317 1.224-1.944.62zm6.38-3.792c.721-.29 1.583-.254 1.916.079.332.332-.259.568-1.313.525-1.165-.048-1.402-.285-.604-.604zm-412.34 50.5c-6.28-2.03-13.594-8.149-17.538-14.672-6.86-11.343-7.425-22.743-1.73-34.858 6.16-13.104 22.651-20.072 37.409-15.807 4.978 1.44 6.99 2.805 13.045 8.86 6.023 6.024 7.425 8.08 8.836 12.963 1.71 5.919 1.369 15.045-.609 16.267-.8.495-25.946 1.383-40.136 1.418-2.613.006-4.75.446-4.75.977 0 1.859 6.499 8.345 9.702 9.684 6.704 2.801 16.565 1.132 20.695-3.503l1.897-2.13 4.103 3.742c2.256 2.058 5.187 4.445 6.512 5.304l2.409 1.561-7.91 4.627c-4.35 2.545-9.175 5.104-10.724 5.688-3.44 1.298-17.062 1.22-21.21-.12zm22.754-41.764c-.87-7.786-14.623-11.953-22.33-6.766-3.347 2.254-6.46 7.01-5.54 8.467.26.41 6.697.746 14.307.746h13.836zm155.274 36.534c1.432-1.877 3.367-3.704 4.301-4.059.934-.355-.081 1.18-2.255 3.413-4.827 4.956-5.494 5.166-2.046.646zm182.104-30.587c.358-1.925 1.268-4.388 2.022-5.473 1.853-2.663 1.731-1.919-.65 3.973-1.684 4.164-1.913 4.415-1.372 1.5zm-144.956-6.528c.322-.84 1.545-2.026 2.718-2.636 1.962-1.019 1.938-.896-.292 1.528-2.788 3.032-3.245 3.24-2.426 1.108zm-108.65-28.397c0-.473.676-1.12 1.5-1.437.826-.316 1.5-.188 1.5.286s-.674 1.12-1.5 1.437c-.824.317-1.5.188-1.5-.286zm-228.06-5.336c-5.51-3.715-5.763-10.282-.605-15.74 3.174-3.358 6.247-3.784 10.698-1.482 3.49 1.804 5.968 6.177 5.968 10.532 0 2.233-.904 3.992-3.106 6.05-3.835 3.582-8.263 3.8-12.954.64zm218.06-52.414c-24.091-3.877-36.77-7.652-52.314-15.574-34.855-17.766-58.3-40.926-74.153-73.251-3.506-7.15-7.255-15.925-8.33-19.5-3.257-10.833-5.496-22.693-4.805-25.448 1.755-6.993 9.62-8.885 14.632-3.52 2.24 2.397 3.402 5.484 5.552 14.75 3.543 15.268 6.535 23.94 11.072 32.089 13.594 24.419 33.605 43.09 61.82 57.682 8.99 4.648 33.083 13.224 34.15 12.156.947-.946-.869-3.423-3.762-5.132-5.585-3.3-21.426-20.117-27.478-29.173-16.07-24.047-26.926-54.598-29.003-81.62l-.662-8.605-13.137.551c-11.035.463-13.651.285-16.35-1.11-6.554-3.39-8.09-10.17-3.137-13.85 2.21-1.642 4.921-2.014 18.25-2.5l15.656-.571v-4.987c0-6.882 3.705-28.47 6.601-38.466 3.019-10.417 9.478-26.78 13.025-32.996 5.81-10.185 17.28-25.204 26.608-34.841 5.37-5.55 9.766-10.387 9.766-10.75 0-3.747-30.54 8.512-44 17.662-20.342 13.828-33.176 27.085-45.185 46.679-7.459 12.169-10.43 20.08-16.783 44.704-2.57 9.958-10.513 13.637-15.214 7.046-3.832-5.373-3.145-13.348 2.608-30.25 8.283-24.34 17.983-40.361 35.589-58.787 24.737-25.887 54.555-41.212 93.985-48.305 31.602-5.684 75 3.183 106.404 21.74 17.125 10.12 36.413 27.426 47.819 42.906 14.328 19.446 25.797 45.74 27.478 62.998.51 5.236.358 5.734-2.657 8.75-1.76 1.759-4.109 3.198-5.221 3.198-3.183 0-8.506-6.054-9.726-11.06-9.7-39.8-27.86-65.143-64.448-89.933-8.579-5.813-20.54-11.315-33.451-15.388-13.772-4.345-14.206-3.708-3.676 5.385 7.193 6.212 19.823 20.596 25.784 29.367 4.085 6.008 11.463 20.832 15.25 30.635 4.245 10.993 7.76 25.05 10.563 42.244l2.241 13.75h2.78c1.53 0 7.251-.486 12.714-1.08 8.564-.932 10.357-.862 13.01.51 5.83 3.015 6.884 9.338 2.437 14.623l-2.698 3.206-10.802-.683c-7.924-.502-10.801-.374-10.801.477 0 .638-.633.918-1.407.621-1.362-.523-2.89 2.136-3.921 6.826-.242 1.1-.493-.152-.556-2.782-.1-4.082.213-4.915 2.134-5.687l2.25-.904-2.282-.064c-2.747-.076-2.41-1.125-5.732 17.858-1.483 8.481-4.698 22.656-7.143 31.5-3.729 13.488-5.508 18.012-11.043 28.079-8.58 15.605-12.505 20.662-24.165 31.144-9.948 8.943-15.715 15.11-14.896 15.928.258.259 6.272-1.453 13.365-3.804 47.336-15.687 82.526-53.568 91.903-98.93 2.045-9.894 3.077-12.162 6.44-14.148 4.308-2.545 7.772-2.125 11.263 1.367 2.876 2.876 3.024 3.393 2.5 8.75-.795 8.113-8.342 29.635-15.507 44.223-11.707 23.835-28.131 41.55-55.525 59.89-17.42 11.663-40.635 20.12-63.322 23.067-13.993 1.818-35.211 2.488-42.356 1.338zm9-60.402v-27.077l2.924-2.923c4.049-4.05 8.675-3.996 12.64.144l2.937 3.068-.359 26.932c-.262 19.721-.052 26.933.784 26.933 1.77 0 10.079-4.473 15.17-8.166 23.328-16.922 36.075-38.016 44.496-73.631 1.924-8.137 4.276-23.963 4.391-29.544.01-.462-5.761-.52-12.825-.13-14.723.814-16.208.379-18.082-5.302-1.648-4.993-1.202-7.048 2.06-9.48 2.495-1.862 7.403-2.364 26.615-2.724 1.96-.036 1.55-12.736-.78-24.168-4.301-21.107-13.613-43.136-24.222-57.302-11.128-14.859-34.594-34.864-36.888-31.448-.567.844-.673 12.29-.269 28.968.705 29.104.638 29.705-3.89 34.677-2.857 3.136-6.957 2.886-10.936-.666l-3.265-2.916-.58-30.334c-.318-16.684-.656-30.447-.75-30.584-1.179-1.725-11.07 5.586-22.556 16.673-23.033 22.232-36.103 52.199-40.1 91.941l-.64 6.364 11.813-.698c12.617-.745 15.967-.125 20.063 3.71 2.638 2.473 2.913 6.576.724 10.81l-1.526 2.95h-11.392c-12.206 0-14.556.42-14.556 2.607 0 .766-.42 1.393-.934 1.393-.513 0-1.121 1.237-1.35 2.75-.257 1.699-.474.934-.567-2-.082-2.613-.61-4.75-1.173-4.75-1.417 0-.265 14.008 2.179 26.5 5.058 25.854 17.846 51.468 33.37 66.84 7.852 7.776 21.94 17.66 25.17 17.66h2.305zm7-57.923c-1.979-.634-2.083-.8-.5-.8 1.1 0 3.126.36 4.5.8 1.98.634 2.084.8.5.8-1.1 0-3.124-.36-4.5-.8zm7.813-.683c.722-.29 1.584-.254 1.917.079.332.332-.259.568-1.313.525-1.165-.048-1.402-.285-.604-.604zm-61.562-24.033c1.512-.23 3.987-.23 5.5 0 1.512.229.275.416-2.75.416s-4.263-.187-2.75-.416zm7.75-93.765c0-1.927 6.26-10.36 11.148-15.02 5.432-5.176 4.996-3.981-1.12 3.068-1.94 2.236-4.99 6.03-6.778 8.431-1.788 2.401-3.25 3.985-3.25 3.521zm22-25.522c3.025-2.842 7.3-6.53 9.5-8.194 3.66-2.77 3.602-2.658-.695 1.335-2.583 2.399-6.858 6.087-9.5 8.195-4.674 3.727-4.655 3.69.695-1.336zm82 255.172c.825-.51 2.625-1.228 4-1.596 1.737-.465 2.042-.386 1 .258-.825.51-2.625 1.228-4 1.596-1.738.464-2.043.386-1-.258zm23.733-10.293c.678-.684 1.485-.99 1.793-.683.308.308-.247.867-1.233 1.243-1.425.542-1.54.427-.56-.56zm-25.145-22.885c6.729-7.261 11.457-13.422 14.828-19.32 3.094-5.412 4.522-5.86 1.895-.594-3.595 7.207-9.258 14.13-17.924 21.914-2.865 2.573-2.55 2.046 1.201-2zm18.976-26.284c.375-.987.935-1.542 1.242-1.234.308.308.001 1.115-.682 1.794-.988.98-1.103.865-.56-.56zm109.21-77.295c-6.847-7.502-7.67-12.639-2.698-16.823 6.148-5.174 15.427-2.653 17.909 4.865 1.21 3.67-.12 7.753-3.42 10.491-.86.715-1.565 1.867-1.565 2.56 0 1.179-2.934 2.45-5.726 2.481-.674.008-2.7-1.6-4.5-3.574zm-69.013.88c1.244-.239 3.044-.23 4 .02.956.251-.061.447-2.261.436-2.2-.011-2.983-.216-1.739-.455zM435.701 306.118c2.547-2.806 3.096-3.152 3.044-1.92-.017.412-1.255 1.614-2.75 2.67l-2.718 1.92zm6.508-5.561c.714-1.154 4.568-3.483 4.568-2.76 0 .232-1.18 1.194-2.624 2.14-1.442.945-2.317 1.224-1.944.62zm47.38-24.792c.722-.29 1.584-.254 1.917.079.332.332-.259.568-1.313.525-1.165-.048-1.402-.285-.604-.604z" style="fill:#000"/></svg>