<svg xmlns="http://www.w3.org/2000/svg" xml:space="preserve" width="1024" height="1024"><path d="M512.457 706.378c-.944-2.613-.946-6.703-.009-18.668.886-11.309.912-16.667.1-20.454-1.79-8.349-1.183-28.595 1.529-50.913l.532-4.38 7.454.675c9.87.894 10.492 1.172 9.352 4.17-1.185 3.117.062 3.077 3.043-.096 3.36-3.577 8.63-4.751 16-3.564 8.937 1.439 13.766 4.506 18.716 11.885 5.298 7.899 6.608 12.699 6.062 22.214-.82 14.277-10.366 28.155-21.936 31.887-3.795 1.224-17.853 1.214-17.853-.013 0-.386-1.367-1.179-3.038-1.761l-3.038-1.06.788 3.712c1.334 6.282.967 25.935-.511 27.413-.715.714-4.603 1.523-8.64 1.798l-7.341.5zm38.395-44.421c2.147-1.229 5.24-3.892 6.873-5.92 3.59-4.458 3.283-8.114-1.255-14.965-3.556-5.369-8.212-7.772-16.415-8.474-3.36-.287-6.623-.681-7.252-.876-.629-.195-2.166.735-3.417 2.066-4.9 5.216-3.33 18.896 2.829 24.647 6.494 6.064 12.28 7.158 18.637 3.522zm-321.594 25.796c-6.345-1.747-10.55-4.5-16.445-10.76-5.781-6.14-10.052-12.261-13.445-19.27-6.516-13.457.248-40.145 13.865-54.702 5.455-5.832 10.667-8.944 19.57-11.686 16.56-5.101 32.943-.129 46.428 14.091l3.285 3.464-4.535 2.866c-2.494 1.576-4.534 3.16-4.534 3.52 0 .36-1.085 1.826-2.411 3.257-2.81 3.032-3.31 2.946-16.471-2.863-8.442-3.725-13.019-4.297-23.61-2.95-4.76.605-12.16 9.005-13.027 14.784-.876 5.835 1.572 18.271 4.724 24 2.648 4.813 9.914 10.134 16.138 11.816 10.924 2.953 24.818-2.965 30.228-12.875.412-.755 5.508 1.956 9.72 5.171 2.6 1.984 5.432 3.607 6.294 3.607.99 0 .34.996-1.758 2.696-1.83 1.482-6.291 5.42-9.914 8.75-7.696 7.074-14.47 12.554-15.517 12.554-.406 0-1.45.632-2.317 1.403-2.366 2.101-11.83 4.61-17.01 4.508-2.513-.05-6.68-.67-9.258-1.38zm554.092-1.521c-9.083-1.578-13.5-5.417-23.161-20.123-5.005-7.617-5.563-9.027-6.09-15.386-.32-3.85-.786-7.961-1.037-9.136-.608-2.845-2.85-6.35-4.106-6.419-.555-.03-3.197-.193-5.87-.36-4.821-.303-4.877-.271-6.729 3.805-1.452 3.198-1.872 6.551-1.894 15.11-.016 6.05-.317 14.713-.67 19.25l-.643 8.25-4.601.07c-3.338.052-4.053.29-2.602.867 1.503.598.777.896-2.924 1.2-6.87.566-8.779-1.547-8.395-9.295.155-3.12.612-5.47 1.016-5.22.403.25.714-8.676.69-19.834-.024-11.158-.008-23.775.035-28.038l.078-7.75h19v2.834c0 4.227.928 4.437 4.755 1.077 1.907-1.675 4.571-3.464 5.921-3.978 2.932-1.114 12.025-1.246 12.64-.183.237.413-.265 4.299-1.117 8.636-1.463 7.446-1.45 7.958.245 9.197 1.606 1.174 2.26.682 6.202-4.674 7.221-9.81 15.607-14.025 28.042-14.097 5.211-.03 7.604.55 12.776 3.096 3.5 1.724 7.82 4.79 9.598 6.816 5.061 5.764 8.79 14.748 9.555 23.026l.67 7.25-5.394.015c-2.966.008-8.277.695-11.802 1.526-4.753 1.12-8.498 1.31-14.5.738-10.11-.965-17.218-.985-18.153-.05-1.089 1.089 4.053 7.294 8.134 9.816 7.984 4.934 19.934 2.022 25.724-6.269 1.081-1.548 1.853-1.093 7.572 4.46 3.503 3.402 5.911 6.338 5.353 6.524-.559.186-3.875 2.555-7.369 5.265-11.113 8.617-11.668 9.001-15.041 10.39-4.698 1.932-10.57 2.521-15.908 1.594zm18.574-50.052c-.865-1.674-2.564-3.423-3.775-3.886-2.727-1.045-13.575-3.07-16.44-3.07-2.614 0-6.262 4.447-6.262 7.634v2.365H803.498zm-510.669 47.685c-.675-1.262-.88-5.852-.55-12.319.289-5.669.164-10.083-.279-9.81-.832.515-.71-.912.303-3.513.32-.825.852-6.9 1.18-13.5.328-6.6.86-16.666 1.185-22.37l.589-10.37 4.521.62c2.487.342 6.273.62 8.414.62h3.892l-.104 33.002c-.088 27.891-.336 33.233-1.603 34.5-.825.824-1.13 1.501-.678 1.505.452.004-.528.912-2.178 2.018-4.144 2.778-13.126 2.544-14.692-.383zm31.943 1.63c-.963-.23-2.046-1.597-2.407-3.038-.728-2.899.29-69.202 1.075-69.986.27-.27 4.378-.168 9.13.228l8.637.72-.682 3.652-.681 3.652 2.338-2.097c8.83-7.922 23.88-6.815 31.926 2.35 6.143 6.996 6.867 9.969 6.884 28.247.02 23.197-.714 29.95-3.374 31.026-1.968.795-1.977.852-.147.911 1.411.046 1.648.366.856 1.157-1.396 1.396-11.353 2.116-13.226.957-1.727-1.069-3.423-21.17-2.62-31.05 1.063-13.076-2.449-19.003-11.715-19.772-5.007-.415-5.561-.236-7.91 2.556-2.47 2.935-2.543 3.48-3.24 24.18-.392 11.649-.919 21.715-1.17 22.37-.877 2.285-9.814 4.858-13.674 3.936zm144.749-.248c-6.13-1.575-8.37-3.01-12.632-8.092-2.402-2.864-4.256-5.595-4.118-6.07.137-.474-.403-.862-1.202-.862-2.232 0 .313-5.261 5.402-11.17l4.215-4.892 3.454 3.033c5.437 4.774 12.705 8.03 17.925 8.03 3.762 0 5.147-.538 7.533-2.924 2.865-2.865 3.968-7.077 1.853-7.077-.588 0-2.957-1.298-5.264-2.885-2.307-1.587-8.463-4.95-13.68-7.473-18.906-9.141-22.515-12.438-20.961-19.142.51-2.2.938-6.274.951-9.053.045-9.649 6.931-19.289 16.973-23.763 6.83-3.043 17.865-2.83 25.104.483 5.142 2.354 12.956 8.204 12.94 9.687-.011 1.05-10.83 9.641-12.22 9.703-.7.031-3.298-.945-5.773-2.17-11.805-5.843-22.29-1.947-19.81 7.36.965 3.62 3.876 5.37 18.795 11.297 10.613 4.216 18.182 11 20.033 17.956 1.423 5.349.743 12.628-1.605 17.168-2.446 4.731-11.997 14.42-15.724 15.95-1.754.72-4.714 2.339-6.579 3.596-3.538 2.387-9.482 2.886-15.61 1.31zm-63-1.67c-4.176-1.726-9.497-5.346-12.959-8.818-1.116-1.12-3.382-2.759-5.036-3.643-4.581-2.45-5.8-7.264-5.192-20.522.589-12.833 1.153-14.265 9.845-24.986 7.94-9.793 12.791-12.602 22.725-13.156 18.788-1.047 30.914 10.081 31.923 29.296l.432 8.242-3.369 1.099c-1.853.604-5.394 1.096-7.87 1.093-36.532-.05-34-.196-34 1.965 0 1.104 1.399 3.599 3.107 5.545 3.63 4.134 12.067 7.097 17.377 6.1 3.977-.745 8.8-4.302 7.872-5.803-.403-.651-.192-.783.534-.334.66.407 1.872.181 2.696-.502 1.235-1.026 2.057-.713 4.706 1.79 1.765 1.667 4.526 3.65 6.135 4.406 3.775 1.773 4.505 3.874 1.347 3.874-1.392 0-4.622 1.904-7.727 4.553-5.527 4.718-11.894 8.447-14.423 8.447-.801 0-1.632.528-1.847 1.173-.646 1.937-11.728 2.06-16.276.18zm21.25-43.984c3.031-.812 2.964-4.747-.135-7.846-2.49-2.49-9.478-4.934-13.399-4.685-5.463.346-11.586 5.517-11.047 9.329.298 2.098.984 2.39 6.83 2.91 9.805.87 15.257.96 17.75.292zm199.08 43.463c-.953-1.67-1.479-8.866-1.853-25.333-.288-12.65-.888-23.76-1.334-24.689-2.23-4.646-19.088-3.585-21.739 1.368-.744 1.39-.857 8.78-.363 23.72.824 24.89.733 25.218-6.867 24.976-2.296-.073-6 .126-8.233.443l-4.06.575.06-48.863c.032-26.874.284-49.08.559-49.347.275-.267 3.466-.8 7.092-1.184l6.592-.698.649 11.37c.357 6.252.935 14.102 1.284 17.442l.635 6.074 6.742-3.459c12.027-6.17 21.002-4.268 31.339 6.642l5.833 6.156-.404 22.237c-.332 18.298-.726 23.123-2.225 27.237-2.663 7.314-3.164 7.745-6.815 5.857-2.843-1.47-3.172-1.462-4.32.108-1.143 1.563-1.35 1.512-2.573-.632zm46.049 1.713c-.319-.319-2.785-.813-5.48-1.097-2.694-.285-5.684-.644-6.644-.797-.96-.154-3.363-2.17-5.341-4.481-4.286-5.007-6.171-12.42-7.101-27.932-.506-8.434-.322-10.838 1.037-13.5.908-1.781 2.718-6.164 4.022-9.739 1.617-4.435 2.845-6.416 3.865-6.236.823.144 2.119-.505 2.88-1.442 1.195-1.474 1.18-1.592-.117-.867-1.029.575-1.186.512-.5-.203.55-.573 3.475-2.326 6.5-3.896 6.925-3.596 17.112-3.97 23.5-.866 9.538 4.635 18.256 17.458 19.177 28.204.702 8.193-.197 9.022-11.177 10.31-20.953 2.455-25.267 2.832-30.25 2.642-2.888-.11-5.25.109-5.25.487s1.81 2.978 4.023 5.778c3.197 4.044 4.625 5.09 6.95 5.09 5.403 0 13.061-2.159 15.806-4.455l2.72-2.276 5.99 3.634c3.305 2.004 6.156 4.495 6.36 5.554.478 2.482-4.85 7.252-13.505 12.093-5.704 3.189-7.23 3.619-11.43 3.215-2.666-.256-4.984-.055-5.152.447-.167.502-.565.652-.883.333zm21.348-48.657c-.641-5.359-5.929-7.857-17.314-8.181l-7.3-.208-2.29 4c-4.364 7.623-4.312 7.653 12.427 7.131 14.656-.456 14.748-.474 14.477-2.742zM288.086 608.12c-.999-1.426-1.16-2.928-.562-5.2.464-1.758 1.401-5.397 2.084-8.087 1.702-6.71 6.399-11.609 11.13-11.609 6.506 0 12.885 8.179 11.301 14.489-.758 3.021-7.949 8.883-12.819 10.451-6.695 2.156-9.601 2.144-11.134-.044zm188.73-52.108c-.314-.508-1.188-.687-1.942-.398-1.334.512-8.068-1.21-23.427-5.99-22.756-7.082-31.802-12.235-49.488-28.19-11.255-10.155-16.566-16.51-24.088-28.825-1.141-1.869-3.04-4.508-4.22-5.865-2.824-3.247-11.386-20.497-10.878-21.915.218-.607-.393-2.68-1.358-4.605-1.92-3.832-1.961-3.981-1.983-7.25-.011-1.593-.26-1.865-.852-.93-1.2 1.892-3.376-20.506-3.651-37.589-.126-7.848.111-14.48.527-14.736.417-.258 1.081-3.061 1.477-6.23.396-3.17 1.301-6.888 2.011-8.264.71-1.375 1.83-6.1 2.49-10.5 1.605-10.725 3.076-16.5 4.202-16.5.51 0 .639-.47.284-1.044-.355-.575-.15-1.642.457-2.372.606-.73 2.173-4.423 3.483-8.206 10.97-31.683 35.691-60.884 65.129-76.93 23.515-12.818 50.297-19.449 78.56-19.449 22.43 0 54.984 8.788 67.386 18.192 2.756 2.09 5.769 3.802 6.694 3.804.926.002 1.98.938 2.342 2.08.362 1.141.898 1.835 1.191 1.543.806-.807 8.285 3.263 8.285 4.509 0 .597.698.818 1.552.49.905-.347 1.292-.175.93.412-.343.554.766 1.592 2.464 2.306s2.742 1.677 2.32 2.14c-.421.464.045.552 1.036.195 1.074-.386 1.555-.249 1.19.34-.335.545-.021.996.699 1.005 1.06.012 1.055.176-.025.86-1.066.676-1.003.973.313 1.478.933.358 1.336 1.136.93 1.794-.4.646-.285.894.258.558.91-.563 4.333 2.553 4.333 3.945 0 .346 2.574 3.828 5.721 7.739 3.147 3.91 6.184 7.716 6.75 8.456 4.361 5.703 10.09 11.153 11.255 10.706.758-.29 1.14-.144.85.326-.291.47.371 1.67 1.471 2.665 1.53 1.384 1.7 2 .726 2.618-.928.59-.799.813.477.824 1.567.014 1.938.606 1.664 2.654-.047.35.365.916.914 1.255 2.064 1.276 8.416 17.006 11.182 27.692 5.315 20.528 6.158 40.798 2.498 60.036-2.708 14.229-9.982 34.54-14.398 40.198-1.58 2.024-3.679 5.862-4.665 8.528-.985 2.667-2.408 5.085-3.161 5.374-.753.289-2.244 2.24-3.313 4.336-1.07 2.095-2.756 4.402-3.75 5.126-.992.724-2.997 3.378-4.456 5.899-3.7 6.39-17.86 20.459-26.518 26.344-3.986 2.71-7.247 5.324-7.247 5.809 0 .485-.422.621-.939.302-.516-.319-1.303-.007-1.75.693-.446.7-2.048 1.91-3.56 2.69-1.511.778-2.53 1.633-2.265 1.9.492.491-1.462 1.658-9.486 5.664-8.261 4.123-15.475 7.348-18 8.047-1.375.38-3.85 1.279-5.5 1.998-1.65.718-5.25 2.278-8 3.466-8.296 3.584-21.1 6.089-38.5 7.533-9.075.753-18.651 1.553-21.28 1.777-2.629.223-5.037-.01-5.351-.518zm57.63-61.734c5.087-1.25 13.722-4.658 21.5-8.484 11.27-5.544 14.222-7.54 22.175-14.994 5.045-4.73 10.829-10.855 12.852-13.611 5.126-6.983 4.235-9.764-5.432-16.965-1.846-1.375-3.42-2.275-3.5-2-.079.275-1.43-.512-3.003-1.75-1.574-1.237-3.405-2.25-4.071-2.25-.666 0-2.025-.9-3.02-2-.996-1.1-1.403-2.007-.905-2.015.498-.008.258-.425-.533-.925-1.073-.679-4.393 1.8-13.084 9.765-6.405 5.872-12.553 11.4-13.661 12.286-2.549 2.038-13.017 7.492-16.317 8.502-1.375.42-2.95.906-3.5 1.079-.55.172-5.275 1.246-10.5 2.387-16.782 3.663-28.818 1.65-42.21-7.057-12.712-8.266-20.837-19.654-23.274-32.62-2.814-14.977 2.416-41.33 11.245-56.656 3.907-6.783 16.437-19.04 23.089-22.585 8.962-4.777 19.11-7.16 30.485-7.16 12.032 0 19.744 1.846 29.457 7.053 10.357 5.552 13.637 8.314 20.361 17.148 3.265 4.289 6.2 7.798 6.522 7.798 1.767 0 28.325-20.74 28.325-22.12 0-.484-.486-.88-1.08-.88-.593 0-3.63-2.144-6.75-4.765-6.102-5.13-7.627-6.291-19.322-14.72-4.21-3.033-7.895-5.515-8.192-5.515-.297 0-4.279-1.74-8.848-3.867-4.57-2.128-11.908-4.839-16.308-6.025-4.4-1.187-9.35-2.58-11-3.095-6.703-2.095-18.307-3.221-26.5-2.571-10.98.871-28.922 5.557-35.612 9.3-1.162.65-3.61 1.445-5.44 1.768-5.117.901-14.895 8.496-24.107 18.725-10.254 11.385-16.241 21.14-18.93 30.842-1.126 4.064-2.462 7.646-2.969 7.959-.507.313-1.192 8.42-1.523 18.017-.571 16.57-.471 17.95 1.986 27.447 3.284 12.693 9.58 25.741 17.454 36.169 6.363 8.428 17.524 19.428 24.781 24.426 10.522 7.245 27.325 13.612 41.86 15.86 9.239 1.43 27.772.49 37.5-1.9zm-98-28.399c0-.19-1.012-1.202-2.25-2.25l-2.25-1.905 1.906 2.25c1.79 2.115 2.595 2.706 2.595 1.905zm-26.316-51.842c-.32-.798-.556-.56-.604.604-.044 1.054.193 1.645.525 1.313.332-.333.368-1.195.079-1.917zm201.797-6.78c.328-.532.294-3.255-.077-6.052-.648-4.885-.876-5.189-5.789-7.744-4.014-2.086-6.56-2.667-11.83-2.698l-6.715-.039-4.583 4.853c-2.522 2.669-4.396 5.369-4.166 6 .23.631-.292 1.962-1.16 2.958-1.375 1.575-1.39 1.932-.12 2.735 1.964 1.243 33.67 1.23 34.44-.013zm25.02-102.456c-4.458-1.997-7.276-5.108-8.446-9.32-1.278-4.603-1.38-12.257-.163-12.257.49 0 1.2-1.237 1.578-2.75 1.599-6.406 9.91-13.25 16.09-13.25 7.817 0 15.44 8.458 15.44 17.131 0 6.825-1.328 9.46-8.078 16.025-5.173 5.03-6.526 5.839-9.716 5.805-2.038-.021-5.055-.644-6.705-1.384z" style="fill:#000"/></svg>