<?xml version="1.0" encoding="utf-8"?>
<!-- Generator: Adobe Illustrator 27.1.1, SVG Export Plug-In . SVG Version: 6.00 Build 0)  -->
<svg version="1.1" id="Layer_1" xmlns="http://www.w3.org/2000/svg" xmlns:xlink="http://www.w3.org/1999/xlink" x="0px" y="0px"
	 viewBox="0 0 512 512" style="enable-background:new 0 0 512 512;" xml:space="preserve">
<style type="text/css">
	.st0{fill-rule:evenodd;clip-rule:evenodd;fill:#6B0CDA;}
</style>
<g>
	<g>
		<path class="st0" d="M96.38,340.36c-1.17,3.17-4.12,5.33-7.5,5.48H47.97c-3.38-0.15-6.33-2.31-7.5-5.48L0.3,212.75
			c-0.84-2.04,0.14-4.37,2.18-5.21l1.85-0.28h30.09c3.36,0.14,6.29,2.34,7.36,5.53l25.06,87.1c0.87,3.04,2.32,3.04,3.2,0
			l25.03-87.11c1.07-3.19,4-5.39,7.36-5.53h30.09c2.2-0.19,4.13,1.44,4.32,3.64l-0.28,1.85L96.38,340.36z M142.12,289.79v-32.16
			c0-28.46,13.4-56.04,62.73-56.04s62.72,27.58,62.72,56.04v32.16c0,28.45-13.4,56.05-62.72,56.05S142.12,318.24,142.12,289.79z
			 M226.53,290.93v-34.44c0-13.09-6.84-20.5-21.65-20.5s-21.65,7.4-21.65,20.5v34.44c0,13.09,6.82,20.49,21.65,20.49
			C219.7,311.42,226.53,304.02,226.53,290.93z M281.39,289.79v-32.16c0-28.46,13.41-56.04,62.74-56.04s62.72,27.58,62.72,56.04
			v32.16c0,28.45-13.4,56.05-62.72,56.05S281.39,318.24,281.39,289.79z M365.8,290.93v-34.44c0-13.09-6.86-20.5-21.65-20.5
			s-21.65,7.4-21.65,20.5v34.44c0,13.09,6.86,20.49,21.65,20.49S365.8,304.02,365.8,290.93z M510.42,335.43l-2.73-17.48l-0.56-2.33
			c-0.77-2.64-3.19-4.46-5.94-4.47l-2.24,0.34c-3.19,0.52-6.42,0.78-9.65,0.79c-2.37,0.45-4.79-0.5-6.22-2.44
			c-1.41-3.5-2.2-7.22-2.34-11v-55.65c0.01-3.18,2.59-5.75,5.77-5.76h17.84c3.22-0.05,5.89-2.53,6.16-5.74l1.48-21.53
			c0.23-2.93-1.95-5.49-4.88-5.72l-0.49-0.02h-20.13c-3.18,0-5.75-2.57-5.77-5.75v-27.49c0.08-2.7-2.05-4.95-4.75-5.03l-0.96,0.07
			l-29.64,4.12c-3.22,0.53-5.62,3.27-5.71,6.54v21.79c-0.01,3.18-2.59,5.75-5.77,5.75h-7.27c-3.18,0-5.75,2.57-5.77,5.75v21.51
			c0.01,3.18,2.59,5.75,5.77,5.75h7.27c3.18,0,5.76,2.58,5.77,5.76v67.11c0,25.61,15.4,35.56,41.91,35.56
			c8.07-0.11,16.1-1.24,23.89-3.36l0.1-0.09c2.88-0.59,4.96-3.12,4.97-6.06l-0.18-0.87L510.42,335.43z"/>
	</g>
</g>
</svg>
